HIERARCHY
ROOT Hips
{
	OFFSET 0.000000 0.000000 0.000000
	CHANNELS 6 Xposition Yposition Zposition Zrotation Yrotation Xrotation 
	JOINT LHipJoint
	{
		OFFSET 0.000000 0.000000 0.000000
		CHANNELS 3 Zrotation Yrotation Xrotation
		JOINT LeftUpLeg
		{
			OFFSET 1.363060 -1.794630 0.839290
			CHANNELS 3 Zrotation Yrotation Xrotation
			JOINT LeftLeg
			{
				OFFSET 2.448110 -6.726130 0.000000
				CHANNELS 3 Zrotation Yrotation Xrotation
				JOINT LeftFoot
				{
					OFFSET 2.562200 -7.039590 0.000000
					CHANNELS 3 Zrotation Yrotation Xrotation
					JOINT LeftToeBase
					{
						OFFSET 0.157640 -0.433110 2.322550
						CHANNELS 3 Zrotation Yrotation Xrotation
						End Site
						{
							OFFSET 0.000000 0.000000 0.000000
						}
					}
				}
			}
		}
	}
	JOINT RHipJoint
	{
		OFFSET 0.000000 0.000000 0.000000
		CHANNELS 3 Zrotation Yrotation Xrotation
		JOINT RightUpLeg
		{
			OFFSET -1.305520 -1.794630 0.839290
			CHANNELS 3 Zrotation Yrotation Xrotation
			JOINT RightLeg
			{
				OFFSET -2.542530 -6.985550 0.000000
				CHANNELS 3 Zrotation Yrotation Xrotation
				JOINT RightFoot
				{
					OFFSET -2.568260 -7.056230 0.000000
					CHANNELS 3 Zrotation Yrotation Xrotation
					JOINT RightToeBase
					{
						OFFSET -0.164730 -0.452590 2.363150
						CHANNELS 3 Zrotation Yrotation Xrotation
						End Site
						{
							OFFSET 0.000000 0.000000 0.000000
						}
					}
				}
			}
		}
	}
	JOINT LowerBack
	{
		OFFSET 0.000000 0.000000 0.000000
		CHANNELS 3 Zrotation Yrotation Xrotation
		JOINT Spine
		{
			OFFSET 0.028270 2.035590 -0.193380
			CHANNELS 3 Zrotation Yrotation Xrotation
			JOINT Spine1
			{
				OFFSET 0.056720 2.048850 -0.042750
				CHANNELS 3 Zrotation Yrotation Xrotation
				JOINT Neck
				{
					OFFSET 0.000000 0.000000 0.000000
					CHANNELS 3 Zrotation Yrotation Xrotation
					JOINT Neck1
					{
						OFFSET -0.054170 1.746240 0.172020
						CHANNELS 3 Zrotation Yrotation Xrotation
						JOINT Head
						{
							OFFSET 0.104070 1.761360 -0.123970
							CHANNELS 3 Zrotation Yrotation Xrotation
							End Site
							{
								OFFSET 0.000000 0.000000 0.000000
							}
						}
					}
				}
				JOINT LeftShoulder
				{
					OFFSET 0.000000 0.000000 0.000000
					CHANNELS 3 Zrotation Yrotation Xrotation
					JOINT LeftArm
					{
						OFFSET 3.362410 1.200890 -0.311210
						CHANNELS 3 Zrotation Yrotation Xrotation
						JOINT LeftForeArm
						{
							OFFSET 4.983000 -0.000000 -0.000000
							CHANNELS 3 Zrotation Yrotation Xrotation
							JOINT LeftHand
							{
								OFFSET 3.483560 -0.000000 -0.000000
								CHANNELS 3 Zrotation Yrotation Xrotation
								JOINT LeftFingerBase
								{
									OFFSET 0.000000 0.000000 0.000000
									CHANNELS 3 Zrotation Yrotation Xrotation
									JOINT LeftHandIndex1
									{
										OFFSET 0.715260 -0.000000 -0.000000
										CHANNELS 3 Zrotation Yrotation Xrotation
										End Site
										{
											OFFSET 0.000000 0.000000 0.000000
										}
									}
								}
								JOINT LThumb
								{
									OFFSET 0.000000 0.000000 0.000000
									CHANNELS 3 Zrotation Yrotation Xrotation
									End Site
									{
										OFFSET 0.000000 0.000000 0.000000
									}
								}
							}
						}
					}
				}
				JOINT RightShoulder
				{
					OFFSET 0.000000 0.000000 0.000000
					CHANNELS 3 Zrotation Yrotation Xrotation
					JOINT RightArm
					{
						OFFSET -3.136600 1.374050 -0.404650
						CHANNELS 3 Zrotation Yrotation Xrotation
						JOINT RightForeArm
						{
							OFFSET -5.241900 -0.000000 -0.000000
							CHANNELS 3 Zrotation Yrotation Xrotation
							JOINT RightHand
							{
								OFFSET -3.444170 -0.000000 -0.000000
								CHANNELS 3 Zrotation Yrotation Xrotation
								JOINT RightFingerBase
								{
									OFFSET 0.000000 0.000000 0.000000
									CHANNELS 3 Zrotation Yrotation Xrotation
									JOINT RightHandIndex1
									{
										OFFSET -0.622530 -0.000000 -0.000000
										CHANNELS 3 Zrotation Yrotation Xrotation
										End Site
										{
											OFFSET 0.000000 0.000000 0.000000
										}
									}
								}
								JOINT RThumb
								{
									OFFSET 0.000000 0.000000 0.000000
									CHANNELS 3 Zrotation Yrotation Xrotation
									End Site
									{
										OFFSET 0.000000 0.000000 0.000000
									}
								}
							}
						}
					}
				}
			}
		}
	}
}
MOTION
Frames: 4
Frame Time: 0.008333
1.398503 17.556404 -1.260222 2.643108 -8.813149 12.351834 -0.650815 -0.849701 0.104468 -21.161353 9.604058 -46.530666 5.709418 15.967433 48.709552 2.810294 -1.357445 12.393030 0.417700 -4.148600 -11.495100 -2.703198 -0.321423 -1.105704 11.805151 -6.406404 -48.370181 -4.920149 -16.910073 46.943675 -5.286943 10.001244 19.500422 -0.167700 2.638400 -7.273600 11.460071 -0.801535 28.789994 5.326089 2.120054 6.638127 2.553783 1.897420 1.334489 0.956957 0.890983 -5.604050 -7.008964 -0.305832 -8.869230 -6.316000 -0.701700 -6.344600 -11.009150 -7.173701 1.467224 -37.345334 -16.093333 53.334206 30.673560 -39.975485 -15.584570 1.682373 -2.360139 -54.529740 -12.865962 16.815825 -4.084400 -7.125000 0.000000 0.000000 -37.130400 46.084400 -1.154800 15.736441 7.745344 3.271747 30.220503 11.691105 13.220345 -31.342159 36.708908 -14.799036 -1.391712 1.906395 -24.392616 0.264852 9.142518 0.089100 7.125000 0.000000 0.000000 19.928800 -23.182800 11.142500 
1.395539 17.554429 -1.264941 2.598079 -8.758982 12.524982 -0.595351 -0.868460 0.065579 -21.162266 9.559506 -46.715803 5.715491 15.993142 48.737259 2.838275 -1.430629 12.384474 0.371200 -3.913100 -10.832400 -2.735215 -0.303809 -1.124261 11.908199 -6.382322 -48.556270 -4.935347 -16.933247 46.994648 -5.266822 9.961272 19.375536 -0.197000 2.858300 -7.884400 11.417272 -0.826806 28.902411 5.313590 2.093995 6.630151 2.566282 1.879829 1.278545 0.801180 0.965129 -5.541350 -6.959639 -0.226959 -9.002557 -6.268700 -0.655200 -6.404000 -10.985142 -7.228654 1.466567 -37.061519 -16.529652 53.358575 30.992641 -40.183253 -15.833561 1.699472 -2.356424 -53.729692 -13.366735 17.348325 -4.395900 -7.125000 0.000000 0.000000 -37.910500 46.473000 -1.609500 15.720914 7.758298 3.277595 30.024167 11.672104 13.268017 -31.420732 36.777405 -14.875339 -1.395575 1.909983 -23.850140 0.145166 9.277536 0.079300 7.125000 0.000000 0.000000 19.842500 -23.056300 11.149900 
1.392576 17.552782 -1.269440 2.539862 -8.642214 12.732011 -0.534180 -0.891285 0.021494 -21.153444 9.483903 -46.920099 5.716528 16.020329 48.762863 2.903569 -1.592788 12.415650 0.344000 -3.768900 -10.427300 -2.773240 -0.283471 -1.144375 12.041707 -6.412065 -48.770433 -4.931335 -16.944792 47.010706 -5.254157 9.966179 19.410335 -0.163700 2.606500 -7.185100 11.397686 -0.878005 28.963770 5.324316 2.036847 6.616016 2.613823 1.846777 1.243740 0.641730 1.043338 -5.555364 -6.946940 -0.128923 -9.052480 -6.242000 -0.600800 -6.410600 -10.955871 -7.272367 1.463187 -36.838934 -16.943860 53.436274 31.354034 -40.413122 -16.101988 1.714419 -2.360065 -52.968637 -13.663311 17.922661 -4.647400 -7.125000 0.000000 0.000000 -38.552000 46.919500 -2.140100 15.707009 7.771081 3.284364 29.815465 11.620985 13.259250 -31.631750 36.938505 -15.056353 -1.395838 1.924508 -23.125018 -0.020727 9.275257 0.062000 7.125000 0.000000 0.000000 19.744800 -23.065300 11.083600 
1.389394 17.550258 -1.275806 2.534545 -8.479600 12.943588 -0.473415 -0.917204 -0.021936 -21.193914 9.356547 -47.127939 5.716941 16.047051 48.800915 2.970856 -1.771293 12.448629 0.332400 -3.705300 -10.249100 -2.819317 -0.266528 -1.169716 12.136326 -6.483757 -48.994610 -4.931405 -16.959023 47.010431 -5.227542 9.893383 19.395533 -0.159600 2.574200 -7.095400 11.380044 -0.923996 28.993746 5.306375 1.977468 6.601068 2.617023 1.814747 1.228641 0.514131 1.081490 -5.552717 -6.887332 -0.089478 -9.115189 -6.195400 -0.576600 -6.432100 -10.924590 -7.314662 1.456004 -36.497348 -17.405004 53.633560 31.743833 -40.652748 -16.381819 1.731164 -2.373397 -52.140761 -13.805515 18.492901 -4.845600 -7.125000 0.000000 0.000000 -39.077300 47.385400 -2.701400 15.688084 7.778750 3.295972 29.635488 11.488760 13.245308 -31.938214 37.175306 -15.321836 -1.397290 1.942862 -22.237464 -0.181984 9.308872 0.046200 7.125000 0.000000 0.000000 19.649900 -23.042300 11.034600 
